<svg width="40" height="36" viewBox="0 0 40 36" fill="none" xmlns="http://www.w3.org/2000/svg">
<path d="M18.2851 36H21.8778V32.4073H18.2851V36Z" fill="#242424"/>
<path d="M15.0811 32.4122H25.0876V28.8195H15.0811V32.4122Z" fill="#242424"/>
<path d="M16.6186 0.457764H6.612V4.05047H16.6186V0.457764Z" fill="#242424"/>
<path d="M0.200439 7.8428L0.200439 17.8494H3.79315L3.79315 7.8428H0.200439Z" fill="#242424"/>
<path d="M36.4073 7.84195V17.8485H40V7.84195H36.4073Z" fill="#242424"/>
<path d="M33.6281 0.457764H23.6216V4.05047H33.6281V0.457764Z" fill="#242424"/>
<path d="M10.6134 28.822L29.5543 28.822V25.2293L10.6134 25.2293V28.822Z" fill="#242424"/>
<path d="M7.27835 25.2358L32.8863 25.2358V21.6431L7.27835 21.6431V25.2358Z" fill="#242424"/>
<path d="M21.8799 4.04639V7.556H18.2872V4.04639H3.75806V21.6419H36.405V4.04639H21.8799Z" fill="#242424"/>
</svg>
