<svg width="70" height="70" viewBox="0 0 70 70" fill="none" xmlns="http://www.w3.org/2000/svg">
<path d="M64.5925 21.2911H59.2814V10.6801H53.9814V5.36896H59.2814V0.0690262H64.5925V5.36896H69.9036V10.6801H64.5925V21.2911ZM53.9827 58.4446V63.7557H59.2826V69.0668H64.5937V63.7557H69.9048V58.4446H64.5937V53.1446H59.2826V58.4446H53.9827ZM48.6715 26.602H59.2814V21.2909H48.6715V15.9903H43.3604V21.2909H38.0493V15.9903H43.3604V10.6792H27.439V15.9903H32.7501V21.2909H27.439V15.9903H22.1279V21.2909H11.5168V26.602H22.1279V42.5242H16.8272V47.8353H11.5161V53.1464H27.4383V58.4464H32.7494V63.7575H38.05V58.4464H43.3611V53.1464H59.2819V47.8353H53.9819V42.5242H48.6708V26.602H48.6715ZM6.20715 58.4446H0.906508V63.7557H6.20715V69.0668H11.5183V63.7557H16.8294V58.4446H11.5183V53.1446H6.20715V58.4446ZM11.5168 10.6799H16.828V5.36879H11.5168V0.0688477H6.20574V5.36879H0.90509V10.6799H6.20574V21.2909H11.5168V10.6799Z" fill="#FFF6D5"/>
</svg>
