<svg width="1366" height="217" viewBox="0 0 1366 217" fill="none" xmlns="http://www.w3.org/2000/svg">
<path d="M0 216.574H43.1538V43.9588H165.423C165.423 43.9588 172.615 43.9588 172.615 51.1511C172.615 58.3434 165.423 58.3434 165.423 58.3434H57.5384V101.497H165.423C194.192 101.497 215.769 79.9203 215.769 51.1511C215.769 22.3819 194.192 0.805054 165.423 0.805054H0V216.574Z" fill="#FFF8E0"/>
<path d="M230.027 166.228C230.027 194.997 251.604 216.574 280.373 216.574H395.45C424.219 216.574 445.796 194.997 445.796 166.228V51.1511C445.796 22.3819 424.219 0.805054 395.45 0.805054H280.373C251.604 0.805054 230.027 22.3819 230.027 51.1511V166.228ZM273.181 166.228V51.1511C273.181 43.9588 280.373 43.9588 280.373 43.9588H395.45C395.45 43.9588 402.642 43.9588 402.642 51.1511V166.228C402.642 173.42 395.45 173.42 395.45 173.42H280.373C280.373 173.42 273.181 173.42 273.181 166.228Z" fill="#FFF8E0"/>
<path d="M460.054 216.574H503.208V43.9588H618.284C618.284 43.9588 625.477 43.9588 625.477 51.1511C625.477 58.3434 618.284 58.3434 618.284 58.3434H517.592L517.952 101.497H625.477C654.246 101.497 675.823 79.9203 675.823 51.1511C675.823 22.3819 654.246 0.805054 625.477 0.805054H460.054V216.574ZM517.952 115.882L517.592 159.036H625.477C625.477 159.036 632.669 159.036 632.669 166.228V216.574H675.823V166.228C675.823 137.459 654.246 115.882 625.477 115.882H517.952Z" fill="#FFF8E0"/>
<path d="M690.081 43.9588H776.388V216.574H819.542V43.9588H905.85V0.805054H690.081V43.9588Z" fill="#FFF8E0"/>
<path d="M920.108 216.574H963.262V159.036H1092.72V216.574H1135.88V51.1511C1135.88 22.3819 1114.3 0.805054 1085.53 0.805054H970.454C941.685 0.805054 920.108 22.3819 920.108 51.1511V216.574ZM963.262 115.882V43.9588H1092.72V115.882H963.262Z" fill="#FFF8E0"/>
<path d="M1193.29 173.42V0.805054H1150.13V216.574H1365.9V173.42H1193.29Z" fill="#FFF8E0"/>
<path d="M1212.87 73.2996H1222.55V92.651H1227.39V73.2996H1237.06V68.4618H1212.87V73.2996Z" fill="#FFF8E0"/>
<path d="M1238.66 151.314C1238.66 154.54 1241.08 156.959 1244.3 156.959H1257.2C1260.43 156.959 1262.85 154.54 1262.85 151.314V138.414C1262.85 135.188 1260.43 132.769 1257.2 132.769H1244.3C1241.08 132.769 1238.66 135.188 1238.66 138.414V151.314ZM1243.5 151.314V138.414C1243.5 137.607 1244.3 137.607 1244.3 137.607H1257.2C1257.2 137.607 1258.01 137.607 1258.01 138.414V151.314C1258.01 152.121 1257.2 152.121 1257.2 152.121H1244.3C1244.3 152.121 1243.5 152.121 1243.5 151.314Z" fill="#FFF8E0"/>
<path d="M1212.87 124.805H1217.71V105.454H1225.77V119.161C1225.77 122.386 1228.19 124.805 1231.42 124.805C1234.64 124.805 1237.06 122.386 1237.06 119.161V100.616H1232.22V118.355C1232.22 119.161 1231.42 119.161 1231.42 119.161C1230.61 119.161 1230.61 118.355 1230.61 118.355V105.454C1230.61 103.035 1228.19 100.616 1225.77 100.616H1212.87V124.805Z" fill="#FFF8E0"/>
<path d="M1212.87 156.959H1217.71V137.607H1231.42C1231.42 137.607 1232.22 137.607 1232.22 138.414C1232.22 139.22 1231.42 139.22 1231.42 139.22H1219.32V144.058H1231.42C1234.64 144.058 1237.06 141.639 1237.06 138.414C1237.06 135.188 1234.64 132.769 1231.42 132.769H1212.87V156.959Z" fill="#FFF8E0"/>
<path d="M1238.66 124.805H1262.85V119.967H1253.18V105.454H1262.85V100.616H1238.66V105.454H1248.34V119.967H1238.66V124.805Z" fill="#FFF8E0"/>
<path d="M1290.24 137.607H1299.91V156.959H1304.75V137.607H1314.43V132.769H1290.24V137.607Z" fill="#FFF8E0"/>
<path d="M1346.65 152.121V132.769H1341.81V156.959H1366V152.121H1346.65Z" fill="#FFF8E0"/>
<path d="M1316.02 156.959H1320.86V150.508H1335.37V156.959H1340.21V138.414C1340.21 135.188 1337.79 132.769 1334.57 132.769H1321.67C1318.44 132.769 1316.02 135.188 1316.02 138.414V156.959ZM1320.86 145.67V137.607H1335.37V145.67H1320.86Z" fill="#FFF8E0"/>
<path d="M1264.45 156.959H1269.29V137.607H1282.19C1282.19 137.607 1282.99 137.607 1282.99 138.414C1282.99 139.22 1282.19 139.22 1282.19 139.22H1270.9L1270.94 144.058H1282.99C1286.22 144.058 1288.64 141.639 1288.64 138.414C1288.64 135.188 1286.22 132.769 1282.99 132.769H1264.45V156.959ZM1270.94 145.67L1270.9 150.508H1282.99C1282.99 150.508 1283.8 150.508 1283.8 151.314V156.959H1288.64V151.314C1288.64 148.089 1286.22 145.67 1282.99 145.67H1270.94Z" fill="#FFF8E0"/>
<path d="M1238.66 92.651H1243.5V82.9753H1258.01V92.651H1262.85V68.4618H1258.01V78.1375H1243.5V68.4618H1238.66V92.651Z" fill="#FFF8E0"/>
<path d="M1264.45 124.805H1269.29V119.161C1269.29 118.355 1270.09 118.355 1270.09 118.355H1282.99C1287.03 118.355 1288.64 115.936 1288.64 112.711C1288.64 109.485 1287.03 107.067 1282.99 107.067H1270.09C1270.09 107.067 1269.29 107.067 1269.29 106.26C1269.29 105.454 1270.09 105.454 1270.09 105.454H1288.64V100.616H1270.09C1266.06 100.616 1264.45 103.035 1264.45 106.26C1264.45 109.485 1266.06 111.904 1270.09 111.904H1282.99C1282.99 111.904 1283.8 111.904 1283.8 112.711C1283.8 113.517 1282.99 113.517 1282.99 113.517H1270.09C1266.06 113.517 1264.45 115.936 1264.45 119.161V124.805Z" fill="#FFF8E0"/>
<path d="M1316.03 106.26C1316.03 109.485 1318.44 111.904 1321.67 111.904H1325.7V124.805H1330.54V111.904H1334.57C1337.8 111.904 1340.22 109.485 1340.22 106.26V100.616H1335.38V107.067H1320.86V100.616H1316.03V106.26Z" fill="#FFF8E0"/>
<path d="M1290.24 105.454H1299.91V124.805H1304.75V105.454H1314.43V100.616H1290.24V105.454Z" fill="#FFF8E0"/>
<path d="M1288.64 68.4618H1270.09C1266.06 68.4618 1264.45 70.8807 1264.45 74.1059C1264.45 77.3312 1266.06 79.7501 1270.09 79.7501H1282.19C1282.19 79.7501 1282.99 79.7501 1282.99 80.5564C1282.99 81.3627 1282.19 81.3627 1282.19 81.3627H1270.09C1266.06 81.3627 1264.45 83.7816 1264.45 87.0069C1264.45 90.2321 1266.06 92.651 1270.09 92.651H1288.64V87.8132H1270.9C1270.9 87.8132 1270.09 87.8132 1270.09 87.0069C1270.09 86.2006 1270.9 86.2006 1270.9 86.2006H1282.99C1287.02 86.2006 1288.64 83.7816 1288.64 80.5564C1288.64 77.3312 1287.02 74.9123 1282.99 74.9123H1270.9C1270.9 74.9123 1270.09 74.9123 1270.09 74.1059C1270.09 73.2996 1270.9 73.2996 1270.9 73.2996H1288.64V68.4618Z" fill="#FFF8E0"/>
</svg>
