<svg width="70" height="38" viewBox="0 0 70 38" fill="none" xmlns="http://www.w3.org/2000/svg">
<path d="M10.6485 11.2205V5.8964H15.9727V0.572266H0V16.5449H5.32413V11.2208L10.6485 11.2205Z" fill="#FFF8E0"/>
<path d="M26.6254 0.572546H21.3013V5.89668H26.6254V11.2208H31.9495V16.5449H37.2737V0.572266L26.6254 0.572546Z" fill="#FFF8E0"/>
<path d="M15.9733 5.89673H21.2974V11.2209H15.9733V5.89673Z" fill="#FFF8E0"/>
<path d="M10.6486 11.2207H15.9727V16.5448H10.6486V11.2207Z" fill="#FFF8E0"/>
<path d="M21.3008 11.2207H26.6249V16.5448H21.3008V11.2207Z" fill="#FFF8E0"/>
<path d="M5.32458 16.5452H10.6487V21.8693H5.32458V16.5452Z" fill="#FFF8E0"/>
<path d="M15.9733 16.5452H21.2974V21.8693H15.9733V16.5452Z" fill="#FFF8E0"/>
<path d="M26.6254 16.5452H31.9495V21.8693H26.6254V16.5452Z" fill="#FFF8E0"/>
<path d="M10.6486 21.8726H15.9727V27.1967H10.6486V21.8726Z" fill="#FFF8E0"/>
<path d="M21.3008 21.8726H26.6249V27.1967H21.3008V21.8726Z" fill="#FFF8E0"/>
<path d="M31.9494 27.1972H26.6253V32.5213H21.3011V37.8455H37.2738V21.8728H31.9497L31.9494 27.1972Z" fill="#FFF8E0"/>
<path d="M15.9733 27.1973H21.2974V32.5214H15.9733V27.1973Z" fill="#FFF8E0"/>
<path d="M10.6485 27.1972H5.32438V21.873H0.000244141V37.8457H15.9729V32.5216H10.6488L10.6485 27.1972Z" fill="#FFF8E0"/>
<path d="M42.5981 11.2205V5.8964H47.9223V0.572266H31.9496V16.5449H37.2737V11.2208L42.5981 11.2205Z" fill="#FFF8E0"/>
<path d="M58.575 0.572546H53.2509V5.89668H58.575V11.2208H63.8991V16.5449H69.2233V0.572266L58.575 0.572546Z" fill="#FFF8E0"/>
<path d="M47.9229 5.89673H53.247V11.2209H47.9229V5.89673Z" fill="#FFF8E0"/>
<path d="M42.5981 11.2207H47.9223V16.5448H42.5981V11.2207Z" fill="#FFF8E0"/>
<path d="M53.2504 11.2207H58.5745V16.5448H53.2504V11.2207Z" fill="#FFF8E0"/>
<path d="M37.2742 16.5452H42.5983V21.8693H37.2742V16.5452Z" fill="#FFF8E0"/>
<path d="M47.9229 16.5452H53.247V21.8693H47.9229V16.5452Z" fill="#FFF8E0"/>
<path d="M58.575 16.5452H63.8991V21.8693H58.575V16.5452Z" fill="#FFF8E0"/>
<path d="M42.5981 21.8726H47.9223V27.1967H42.5981V21.8726Z" fill="#FFF8E0"/>
<path d="M53.2504 21.8726H58.5745V27.1967H53.2504V21.8726Z" fill="#FFF8E0"/>
<path d="M63.899 27.1972H58.5749V32.5213H53.2507V37.8455H69.2234V21.8728H63.8993L63.899 27.1972Z" fill="#FFF8E0"/>
<path d="M47.9229 27.1973H53.247V32.5214H47.9229V27.1973Z" fill="#FFF8E0"/>
<path d="M42.5981 27.1972H37.274V21.873H31.9498V37.8457H47.9225V32.5216H42.5984L42.5981 27.1972Z" fill="#FFF8E0"/>
</svg>
