<svg width="84" height="46" viewBox="0 0 84 46" fill="none" xmlns="http://www.w3.org/2000/svg">
<path d="M0.0291748 0.943848H6.41547V7.33014H0.0291748V0.943848Z" fill="#FFF8E0"/>
<path d="M38.3518 0.943848H44.7381V7.33014H38.3518V0.943848Z" fill="#FFF8E0"/>
<path d="M19.1884 20.1033H25.5747V26.4896H19.1884V20.1033Z" fill="#FFF8E0"/>
<path d="M31.9666 7.33014V0.943848H12.8032V7.33014H6.41693V13.7164H0.0306396V32.8799H6.41693V39.2662H12.8032V45.6525H31.9666V39.2662H38.3529V32.8799H44.7392V13.7164H38.3529V7.33014H31.9666ZM31.9666 26.4936H25.5804V32.8799H19.1894V26.4936H12.8031V20.1026H19.1894V13.7164H25.5804V20.1026H31.9666V26.4936Z" fill="#FFF8E0"/>
<path d="M0.0291748 39.2664H6.41547V45.6527H0.0291748V39.2664Z" fill="#FFF8E0"/>
<path d="M38.3518 39.2664H44.7381V45.6527H38.3518V39.2664Z" fill="#FFF8E0"/>
<path d="M38.3518 0.943848H44.7381V7.33014H38.3518V0.943848Z" fill="#FFF8E0"/>
<path d="M76.6745 0.943848H83.0608V7.33014H76.6745V0.943848Z" fill="#FFF8E0"/>
<path d="M57.511 20.1033H63.8973V26.4896H57.511V20.1033Z" fill="#FFF8E0"/>
<path d="M70.2894 7.33014V0.943848H51.126V7.33014H44.7397V13.7164H38.3534V32.8799H44.7397V39.2662H51.126V45.6525H70.2894V39.2662H76.6757V32.8799H83.062V13.7164H76.6757V7.33014H70.2894ZM70.2894 26.4936H63.9031V32.8799H57.5122V26.4936H51.1259V20.1026H57.5122V13.7164H63.9031V20.1026H70.2894V26.4936Z" fill="#FFF8E0"/>
<path d="M38.3518 39.2664H44.7381V45.6527H38.3518V39.2664Z" fill="#FFF8E0"/>
<path d="M76.6745 39.2664H83.0608V45.6527H76.6745V39.2664Z" fill="#FFF8E0"/>
</svg>
