<svg width="70" height="45" viewBox="0 0 70 45" fill="none" xmlns="http://www.w3.org/2000/svg">
<path d="M66.1492 0.822754C67.8777 0.822754 69.2783 2.22337 69.2783 3.95192C69.2783 5.68046 67.8777 7.08108 66.1492 7.08108L63.02 7.08108L63.02 3.95192C63.02 2.22337 64.4206 0.822754 66.1492 0.822754ZM53.6056 0.822753C55.3341 0.822753 56.7348 2.22337 56.7348 3.95192C56.7348 5.68046 55.3341 7.08108 53.6056 7.08108L50.4764 7.08108L50.4764 3.95192C50.4764 2.22337 51.877 0.822753 53.6056 0.822753ZM41.0066 0.822753C42.78 0.822753 44.2173 2.26008 44.2173 4.03349L44.2173 7.08026L37.795 7.08026L37.795 4.03349C37.7958 2.26008 39.2331 0.822753 41.0066 0.822753ZM28.4083 0.822752C30.1369 0.822752 31.5375 2.22337 31.5375 3.95192L31.5375 7.08108L28.4083 7.08108C26.6806 7.08108 25.2792 5.68046 25.2792 3.95191C25.2792 2.22337 26.6798 0.822752 28.4083 0.822752ZM15.8648 0.822752C17.5925 0.822752 18.9939 2.22337 18.9939 3.95191L18.9939 7.08108L12.7356 7.08108L12.7356 3.95191C12.7356 2.22337 14.1362 0.822751 15.8648 0.822752ZM3.18415 0.822751C4.91188 0.822751 6.31331 2.22337 6.31331 3.95191L6.31331 7.08108L0.0549857 7.08108L0.0549858 3.95191C0.0549859 2.22337 1.4556 0.822751 3.18415 0.822751ZM63.02 7.08108L63.02 10.2102C63.02 11.9388 61.6194 13.3394 59.8908 13.3394C58.1623 13.3394 56.7617 11.9388 56.7617 10.2102C56.7617 8.4817 58.1623 7.08108 59.8908 7.08108L63.02 7.08108ZM50.4764 7.08108L50.4764 10.2102C50.4764 11.9388 49.0758 13.3394 47.3473 13.3394C45.6195 13.3394 44.2181 11.9388 44.2181 10.2102L44.2181 7.08108L50.4764 7.08108ZM37.7958 7.08108L37.7958 10.2102C37.7958 11.9388 36.3952 13.3394 34.6667 13.3394C32.9381 13.3394 31.5375 11.9388 31.5375 10.2102L31.5375 7.08108L37.7958 7.08108ZM22.1223 7.08108C23.85 7.08108 25.2514 8.4817 25.2514 10.2102C25.2514 11.9388 23.85 13.3394 22.1223 13.3394C20.3937 13.3394 18.9931 11.9388 18.9931 10.2102L18.9931 7.08108L22.1223 7.08108ZM12.7356 7.08108L12.7356 10.1279C12.7356 11.9013 11.2975 13.3386 9.52404 13.3386C7.75063 13.3386 6.31331 11.9013 6.31331 10.1279L6.31331 7.08108L12.7356 7.08108ZM66.1492 13.3663C67.8777 13.3663 69.2783 14.7678 69.2783 16.4955C69.2783 18.224 67.8777 19.6247 66.1492 19.6247L63.02 19.6247L63.02 16.4955C63.02 14.7678 64.4206 13.3663 66.1492 13.3663ZM53.6056 13.3663C55.3341 13.3663 56.7348 14.7669 56.7348 16.4955C56.7348 18.224 55.3341 19.6247 53.6056 19.6247L50.4764 19.6247L50.4764 16.4955C50.4764 14.7678 51.877 13.3663 53.6056 13.3663ZM41.0066 13.3663C42.78 13.3663 44.2173 14.8037 44.2173 16.5779L44.2173 19.6247L37.795 19.6246L37.795 16.5779C37.7958 14.8045 39.2331 13.3663 41.0066 13.3663ZM28.4083 13.3663C30.1369 13.3663 31.5375 14.7669 31.5375 16.4955L31.5375 19.6246L28.4083 19.6246C26.6806 19.6246 25.2792 18.224 25.2792 16.4955C25.2792 14.7678 26.6798 13.3663 28.4083 13.3663ZM15.8648 13.3663C17.5925 13.3663 18.9939 14.7669 18.9939 16.4955L18.9939 19.6246L12.7356 19.6246L12.7356 16.4955C12.7356 14.7678 14.1362 13.3663 15.8648 13.3663ZM3.18415 13.3663C4.91187 13.3663 6.31331 14.7669 6.31331 16.4955L6.31331 19.6246L0.0549851 19.6246L0.0549853 16.4955C0.0549853 14.7678 1.4556 13.3663 3.18415 13.3663ZM63.02 19.6247L63.02 26.0469L59.9732 26.0469C58.1998 26.0469 56.7625 24.6096 56.7625 22.8354C56.7625 21.062 58.1998 19.6247 59.9732 19.6247L63.02 19.6247ZM50.4764 19.6247L50.4764 26.0469L44.2181 26.0469L44.2181 19.6247L50.4764 19.6247ZM37.7958 19.6246L37.7958 26.0469L31.5375 26.0469L31.5375 19.6246L37.7958 19.6246ZM22.0407 19.6246C23.8141 19.6246 25.2522 21.062 25.2522 22.8354C25.2522 24.6088 23.8149 26.0469 22.0407 26.0469L18.9939 26.0469L18.9939 19.6246L22.0407 19.6246ZM12.7356 19.6246L12.7356 26.0469L6.31331 26.0469L6.31331 19.6246L12.7356 19.6246ZM66.1492 26.0469C67.8777 26.0469 69.2783 27.4484 69.2783 29.1761C69.2783 30.9046 67.8777 32.3053 66.1492 32.3053L63.02 32.3053L63.02 26.0469L66.1492 26.0469ZM53.6056 26.0469C55.3341 26.0469 56.7348 27.4476 56.7347 29.1761C56.7347 30.9046 55.3341 32.3053 53.6056 32.3053L50.4764 32.3053L50.4764 26.0469L53.6056 26.0469ZM44.2181 26.0469L44.2181 32.3053L37.7958 32.3053L37.7958 26.0469L44.2181 26.0469ZM31.5375 26.0469L31.5375 32.3053L28.4083 32.3053C26.6806 32.3053 25.2792 30.9046 25.2792 29.1761C25.2792 27.4484 26.6798 26.0469 28.4083 26.0469L31.5375 26.0469ZM18.9931 26.0469L18.9931 32.3053L12.7348 32.3053L12.7348 26.0469L18.9931 26.0469ZM6.31331 26.0469L6.31331 32.3053L0.0549846 32.3053L0.0549848 26.0469L6.31331 26.0469ZM63.02 32.3053L63.02 38.5636L59.8908 38.5636C58.1623 38.5636 56.7617 37.163 56.7617 35.4344C56.7617 33.7059 58.1623 32.3053 59.8908 32.3053L63.02 32.3053V32.3053ZM50.4764 32.3053L50.4764 38.5636L44.2181 38.5636L44.2181 32.3053L50.4764 32.3053V32.3053ZM37.7958 32.3053L37.7958 38.5636L31.5375 38.5636L31.5375 32.3053L37.7958 32.3053V32.3053ZM22.1223 32.3053C23.85 32.3053 25.2514 33.7059 25.2514 35.4344C25.2514 37.1622 23.85 38.5636 22.1223 38.5636L18.9931 38.5636L18.9931 32.3053L22.1223 32.3053V32.3053ZM12.7356 32.3053L12.7356 38.5636L6.31331 38.5636L6.31331 32.3053L12.7356 32.3053V32.3053ZM66.1492 38.5636C67.8777 38.5636 69.2783 39.965 69.2783 41.6928C69.2783 43.4213 67.8777 44.8219 66.1492 44.8219C64.4214 44.8219 63.02 43.4213 63.02 41.6928L63.02 38.5636L66.1492 38.5636V38.5636ZM53.6056 38.5636C55.3341 38.5636 56.7347 39.9642 56.7347 41.6928C56.7347 43.4213 55.3341 44.8219 53.6056 44.8219C51.8779 44.8219 50.4764 43.4213 50.4764 41.6928L50.4764 38.5636L53.6056 38.5636V38.5636ZM44.2181 38.5636L44.2181 41.6104C44.2181 43.3838 42.7808 44.8219 41.0074 44.8219C39.234 44.8219 37.7966 43.3846 37.7966 41.6104L37.7966 38.5636L44.2181 38.5636V38.5636ZM31.5375 38.5636L31.5375 41.6928C31.5375 43.4213 30.1369 44.8219 28.4083 44.8219C26.6806 44.8219 25.2792 43.4213 25.2792 41.6928C25.2792 39.965 26.6798 38.5636 28.4083 38.5636L31.5375 38.5636V38.5636ZM18.9931 38.5636L18.9931 41.6928C18.9931 43.4213 17.5925 44.8219 15.8639 44.8219C14.1354 44.8219 12.7348 43.4213 12.7348 41.6928L12.7348 38.5636L18.9931 38.5636V38.5636ZM6.31331 38.5636L6.31331 41.6928C6.31331 43.4213 4.91187 44.8219 3.18415 44.8219C1.4556 44.8219 0.0549841 43.4213 0.0549841 41.6928L0.0549843 38.5636L6.31331 38.5636V38.5636Z" fill="#FFF8E0"/>
</svg>
