<svg width="50" height="27" viewBox="0 0 50 27" fill="none" xmlns="http://www.w3.org/2000/svg">
<path d="M0.611511 0.376709H4.36324V4.12844H0.611511V0.376709Z" fill="#FFF8E0"/>
<path d="M23.1241 0.376221H26.8758V4.12795H23.1241V0.376221Z" fill="#FFF8E0"/>
<path d="M11.8662 7.87944H15.6207V4.12771H19.3724V0.375977H8.11453V4.12771H11.8663L11.8662 7.87944Z" fill="#FFF8E0"/>
<path d="M4.36249 4.12793H8.11422V7.87966H4.36249V4.12793Z" fill="#FFF8E0"/>
<path d="M19.3725 4.12793H23.1242V7.87966H19.3725V4.12793Z" fill="#FFF8E0"/>
<path d="M23.1241 11.6316H19.3724V15.386H23.1241V19.1377H26.8758V7.87988H23.1241V11.6316Z" fill="#FFF8E0"/>
<path d="M8.11412 11.6316H4.36239V7.87988H0.610657V19.1377H4.36239V15.386H8.11412V11.6316Z" fill="#FFF8E0"/>
<path d="M11.8662 11.6316H15.618V15.3833H11.8662V11.6316Z" fill="#FFF8E0"/>
<path d="M4.36249 19.1377H8.11422V22.8894H4.36249V19.1377Z" fill="#FFF8E0"/>
<path d="M19.3725 19.1377H23.1242V22.8894H19.3725V19.1377Z" fill="#FFF8E0"/>
<path d="M15.6203 19.1377H11.8659V22.8894H8.11417V26.6412H19.372V22.8894H15.6203L15.6203 19.1377Z" fill="#FFF8E0"/>
<path d="M0.61084 22.8894H4.36257V26.6411H0.61084V22.8894Z" fill="#FFF8E0"/>
<path d="M23.1241 22.8894H26.8758V26.6411H23.1241V22.8894Z" fill="#FFF8E0"/>
<path d="M23.125 0.376709H26.8768V4.12844H23.125V0.376709Z" fill="#FFF8E0"/>
<path d="M45.6376 0.376221H49.3894V4.12795H45.6376V0.376221Z" fill="#FFF8E0"/>
<path d="M34.3798 7.87944H38.1342V4.12771H41.886V0.375977H30.6281V4.12771H34.3798L34.3798 7.87944Z" fill="#FFF8E0"/>
<path d="M26.876 4.12793H30.6278V7.87966H26.876V4.12793Z" fill="#FFF8E0"/>
<path d="M41.886 4.12793H45.6377V7.87966H41.886V4.12793Z" fill="#FFF8E0"/>
<path d="M45.6377 11.6316H41.8859V15.386H45.6377V19.1377H49.3894V7.87988H45.6377V11.6316Z" fill="#FFF8E0"/>
<path d="M30.6277 11.6316H26.8759V7.87988H23.1242V19.1377H26.8759V15.386H30.6277V11.6316Z" fill="#FFF8E0"/>
<path d="M34.3798 11.6316H38.1316V15.3833H34.3798V11.6316Z" fill="#FFF8E0"/>
<path d="M26.876 19.1377H30.6278V22.8894H26.876V19.1377Z" fill="#FFF8E0"/>
<path d="M41.886 19.1377H45.6377V22.8894H41.886V19.1377Z" fill="#FFF8E0"/>
<path d="M38.1339 19.1377H34.3794V22.8894H30.6277V26.6412H41.8856V22.8894H38.1338L38.1339 19.1377Z" fill="#FFF8E0"/>
<path d="M23.1244 22.8894H26.8762V26.6411H23.1244V22.8894Z" fill="#FFF8E0"/>
<path d="M45.6376 22.8894H49.3894V26.6411H45.6376V22.8894Z" fill="#FFF8E0"/>
</svg>
