<svg width="60" height="60" viewBox="0 0 60 60" fill="none" xmlns="http://www.w3.org/2000/svg">
<path d="M36.9683 2.21267C38.8072 2.21267 40.6476 2.21267 42.5613 2.21267C42.5613 2.7793 42.5613 3.31602 42.5613 3.9574C43.8097 3.9574 44.9878 3.9574 46.2346 3.9574C46.2631 4.61673 46.2885 5.17737 46.3199 5.82025C46.8985 5.84865 47.4576 5.87706 48.0796 5.90846C48.0796 6.48405 48.0796 7.01779 48.0796 7.64422C48.7209 7.67263 49.3025 7.70103 49.9588 7.72794C49.9588 8.33195 49.9588 8.8911 49.9588 9.53547C50.5898 9.53547 51.1504 9.53547 51.7813 9.53547C51.7813 10.1798 51.7813 10.739 51.7813 11.3834C52.4347 11.3834 53.0162 11.3834 53.683 11.3834C53.683 12.0487 53.683 12.6347 53.683 13.2851C54.3259 13.2851 54.8866 13.2851 55.5235 13.2851C55.5235 14.514 55.5235 15.6772 55.5235 16.9211C56.1768 16.9495 56.7554 16.9749 57.3997 17.0018C57.3997 18.8467 57.3997 20.6318 57.3997 22.5111C58.0187 22.5111 58.5749 22.5111 59.1849 22.5111C59.1849 27.4881 59.1849 32.3755 59.1849 37.3525C58.6003 37.3525 58.0157 37.3525 57.4341 37.3525L57.4506 37.375C57.4506 36.7844 57.4506 36.1969 57.4506 35.5017C56.7404 35.5017 56.1588 35.5017 55.5025 35.5017C55.5025 33.6134 55.5025 31.8313 55.5025 29.964C54.8611 29.964 54.299 29.964 53.6696 29.964C53.6696 28.0727 53.6696 26.2592 53.6696 24.365C53.0162 24.365 52.4347 24.365 51.8695 24.365C51.8695 23.7176 51.8695 23.1584 51.8695 22.5051C52.5004 22.5051 53.079 22.5051 53.7234 22.5051C53.7234 21.8488 53.7234 21.2851 53.7234 20.6423C54.3483 20.6423 54.9075 20.6423 55.4681 20.6423C55.4681 19.3789 55.4681 18.2038 55.4681 17.0063C54.8432 16.9779 54.2855 16.9495 53.6457 16.9181C53.6457 16.2872 53.6457 15.7265 53.6457 15.2107C52.3764 15.2107 51.1968 15.2107 49.9499 15.2107C49.9499 15.8147 49.9499 16.3514 49.9499 16.8986C49.2995 16.8986 48.7179 16.8986 48.0736 16.8986C48.0736 16.2946 48.0736 15.7579 48.0736 15.1255C47.4576 15.1255 46.9014 15.1255 46.2601 15.1255C46.2601 13.8502 46.2601 12.6646 46.2601 11.3953C45.6127 11.3953 45.0565 11.3953 44.4256 11.3953C44.4256 9.51902 44.4256 7.73392 44.4256 5.8651C43.7872 5.8651 43.2251 5.8651 42.5523 5.8651C42.5523 5.20578 42.5523 4.6242 42.5523 4.04262C40.6611 4.04262 38.879 4.04262 36.9907 4.04262C36.9907 6.52143 36.9907 8.9509 36.9907 11.4462C36.3239 11.4462 35.7648 11.4462 35.1368 11.4462C35.1368 13.3 35.1368 15.0881 35.1368 16.9794C34.5104 16.9794 33.9542 16.9794 33.3667 16.9794C33.3667 19.4926 33.3667 21.9011 33.3667 24.3949C33.9677 24.3949 34.5268 24.3949 35.089 24.3949C35.089 25.6672 35.089 26.8527 35.089 28.0563C34.4865 28.0563 33.9363 28.0563 33.3487 28.0563C33.3203 27.4403 33.2979 26.8811 33.2695 26.2592C32.6416 26.2592 32.0824 26.2592 31.4186 26.2592C31.4186 25.6088 31.4186 25.0243 31.4186 24.359C30.7623 24.359 30.2061 24.359 29.5707 24.359C29.5707 23.7116 29.5707 23.1495 29.5707 22.5963C28.9308 22.5963 28.3702 22.5963 27.7303 22.5963C27.7303 23.2093 27.7303 23.7714 27.7303 24.35C26.464 24.35 25.2784 24.35 23.9942 24.35C23.9942 23.734 23.9942 23.1525 23.9942 22.6113C23.3333 22.6113 22.7772 22.6113 22.1403 22.6113C22.1403 23.2392 22.1403 23.7968 22.1403 24.4113C20.8949 24.4113 19.7317 24.4113 18.5476 24.4113C18.5476 25.0527 18.5476 25.6313 18.5476 26.2966C19.1636 26.2966 19.7198 26.2966 20.3552 26.2966C20.3552 27.5719 20.3552 28.7574 20.3552 30.0133C20.9951 30.0133 21.5587 30.0133 22.1866 30.0133C22.1866 30.6263 22.1866 31.1615 22.1866 31.8178C22.834 31.8178 23.4096 31.8178 24.0405 31.8178C24.0405 33.1021 24.0405 34.2652 24.0405 35.5226C24.6789 35.5226 25.2605 35.5226 25.9033 35.5226C25.9033 36.1789 25.9033 36.7426 25.9033 37.3167C26.5447 37.3167 27.1203 37.3167 27.7737 37.3167C27.7737 36.6887 27.7737 36.1281 27.7737 35.5465C29.6395 35.5465 31.4216 35.5465 33.3203 35.5465C33.3203 36.1625 33.3203 36.744 33.3203 37.3914C34.5896 37.3914 35.7498 37.3914 37.0191 37.3914C37.0191 38.0418 37.0191 38.6203 37.0191 39.2677C38.3123 39.2677 39.4979 39.2677 40.676 39.2677C40.676 41.15 40.676 42.9605 40.676 44.8667C40.0481 44.8667 39.4695 44.8667 38.8386 44.8667C38.8386 45.5006 38.8386 46.0418 38.8386 46.6668C38.2226 46.6668 37.662 46.6668 37.0027 46.6668C37.0027 47.3111 37.0027 47.8673 37.0027 48.5266C36.3269 48.5266 35.7498 48.5266 35.086 48.5266C35.086 50.1278 35.086 51.6214 35.086 53.1762C34.464 53.1762 33.9258 53.1762 33.3637 53.1762C33.3637 54.7326 33.3637 56.2277 33.3637 57.8498C34.6046 57.8498 35.7932 57.8498 36.9847 57.8498L36.9623 57.8348C36.9623 58.4045 36.9623 58.9726 36.9623 59.5886C32.0376 59.5886 27.1383 59.5886 22.1522 59.5886C22.1522 58.9696 22.1522 58.4 22.1522 57.8348L22.1298 57.8528C24.5937 57.8528 27.0545 57.8528 29.5468 57.8528C29.5468 57.1426 29.5468 56.5655 29.5468 55.9107C28.9204 55.9107 28.3612 55.9107 27.7049 55.9107C27.7049 53.4005 27.7049 50.968 27.7049 48.4533C27.0486 48.4533 26.4924 48.4533 25.863 48.4533C25.863 47.2095 25.863 46.0493 25.863 44.8114C24.6071 44.8114 23.4215 44.8114 22.1403 44.8114C22.1403 41.6748 22.1403 38.6203 22.1403 35.4972C20.877 35.4972 19.7168 35.4972 18.4699 35.4972C18.4699 33.6433 18.4699 31.8582 18.4699 29.9789C17.2006 29.9789 16.018 29.9789 14.7637 29.9789C14.7637 29.3196 14.7637 28.7559 14.7637 28.1131C14.1298 28.1131 13.5736 28.1131 12.9143 28.1131C12.9143 26.8243 12.9143 25.6208 12.9143 24.3605C12.2505 24.3605 11.6883 24.3605 11.0529 24.3605C11.0529 23.7445 11.0529 23.1824 11.0529 22.541C10.422 22.541 9.86584 22.541 9.21848 22.541C9.21848 19.4268 9.21848 16.3948 9.21848 13.3404C7.94619 13.3404 6.76658 13.3404 5.50625 13.3404C5.50625 14.5499 5.50625 15.7131 5.50625 16.9136C4.85291 16.954 4.27582 16.9883 3.62845 17.0257C3.62845 18.899 3.62845 20.6871 3.62845 22.4976C2.98109 22.4976 2.41447 22.4976 1.84634 22.4976L1.86727 22.5126C1.86727 20.6961 1.86727 18.8766 1.86727 16.9824C2.42493 16.9824 2.96166 16.9824 3.60902 16.9824C3.60902 15.7325 3.60902 14.5499 3.60902 13.3C4.27881 13.3 4.83796 13.3 5.49728 13.3C5.49728 12.6497 5.49728 12.0681 5.49728 11.4088C6.15361 11.4088 6.71127 11.4088 7.34816 11.4088C7.34816 10.7674 7.34816 10.2082 7.34816 9.57733C7.98655 9.57733 8.54869 9.57733 9.18409 9.57733C9.18409 8.94193 9.18409 8.38278 9.18409 7.71449C9.83445 7.71449 10.413 7.71449 11.0469 7.71449C11.0469 7.07012 11.0469 6.52891 11.0469 5.90397C11.6823 5.87557 12.2639 5.85015 12.9143 5.82324C12.9143 5.23867 12.9143 4.67653 12.9143 4.00076C14.1552 4.00076 15.3303 4.00076 16.5876 4.00076C16.5876 3.35639 16.5876 2.82265 16.5876 2.2037C18.4968 2.2037 20.3298 2.2037 22.1582 2.2037L22.1433 2.18127C22.1672 2.7479 22.1926 3.31303 22.224 3.99777C22.84 3.99777 23.4156 3.99777 23.9777 3.99777C23.9777 4.67952 23.9777 5.23867 23.9777 5.8337C23.3722 5.86211 22.8116 5.88304 22.221 5.91145C22.221 7.14637 22.221 8.30653 22.221 9.57584C22.837 9.57584 23.4156 9.57584 24.0599 9.57584C24.0599 10.2486 24.0599 10.8078 24.0599 11.349C24.7133 11.349 25.2949 11.349 25.9452 11.349C25.9452 10.724 25.9452 10.1634 25.9452 9.62667C26.5761 9.62667 27.1323 9.62667 27.7707 9.62667C27.7707 10.2456 27.7707 10.8048 27.7707 11.3714C28.415 11.3714 28.9742 11.3714 29.6365 11.3714C29.6365 9.52949 29.6365 7.72645 29.6365 5.84417C30.8968 5.84417 32.057 5.84417 33.2575 5.84417C33.2949 5.18485 33.3293 4.60626 33.3637 3.9589C34.6076 3.9589 35.7677 3.9589 36.9907 3.9589C36.9907 3.31752 36.9907 2.75239 36.9907 2.18277L36.9683 2.21267ZM33.3786 5.895C33.3786 7.14487 33.3786 8.31849 33.3786 9.50557C33.9856 9.50557 34.5358 9.50557 35.077 9.50557C35.077 8.27065 35.077 7.09553 35.077 5.895C34.4984 5.895 33.9856 5.895 33.3786 5.895Z" fill="#FFF8E0"/>
<path d="M22.1605 2.20666C22.1605 1.61312 22.1605 1.01809 22.1605 0.358765C27.1256 0.358765 32.0279 0.358765 36.9646 0.358765C36.9646 0.98669 36.9646 1.59966 36.9646 2.21264L36.993 2.18423C33.9356 2.18423 30.8767 2.18423 27.7252 2.18423C27.7252 2.81515 27.7252 3.3728 27.7252 3.94691C27.0718 3.94691 26.5127 3.94691 25.8713 3.94691C25.8713 3.33991 25.8713 2.78076 25.8713 2.18722C24.5751 2.18722 23.3581 2.18722 22.1381 2.18722L22.1605 2.20666Z" fill="#FFF8E0"/>
<path d="M1.88326 37.3477C1.27028 37.3477 0.657308 37.3477 0.00396729 37.3477C0.00396729 32.42 0.00396729 27.5281 0.00396729 22.5227C0.648338 22.5227 1.26131 22.5227 1.87728 22.5227L1.85485 22.5062C1.85485 27.4653 1.85485 32.42 1.85186 37.3791L1.88326 37.3477Z" fill="#FFF8E0"/>
<path d="M7.33291 48.4536C6.76628 48.4536 6.20115 48.4536 5.56874 48.4536C5.54033 47.878 5.51641 47.3218 5.48501 46.6774C4.87503 46.6774 4.31588 46.6774 3.66254 46.6774C3.66254 45.4111 3.66254 44.233 3.66254 42.9846C3.03013 42.9846 2.49639 42.9846 1.88342 42.9846C1.88342 41.059 1.88342 39.2021 1.88342 37.3483L1.85501 37.3767C2.42014 37.3767 2.98976 37.3767 3.65207 37.3767C3.65207 39.259 3.65207 41.0665 3.65207 42.9831C4.32485 42.9831 4.90344 42.9831 5.55379 42.9831C5.55379 44.2495 5.55379 45.4096 5.55379 46.6251C6.1847 46.6535 6.74086 46.6789 7.31646 46.7058C7.31646 47.3412 7.31646 47.9064 7.31646 48.476L7.33291 48.4536Z" fill="#FFF8E0"/>
<path d="M22.1638 57.8423C20.3562 57.8423 18.5472 57.8423 16.6589 57.8423C16.6275 57.2009 16.5991 56.6194 16.5677 55.972C15.3792 55.972 14.2265 55.972 12.9542 55.972C12.9542 55.2962 12.9542 54.6907 12.9542 54.0837L12.9318 54.1062C14.1383 54.1062 15.3478 54.1062 16.5767 54.1062C16.6081 54.7655 16.6335 55.3246 16.6619 55.975C18.5412 55.975 20.3413 55.975 22.1353 55.975C22.1353 56.6687 22.1353 57.2667 22.1353 57.8603L22.1638 57.8423Z" fill="#FFF8E0"/>
<path d="M57.4304 37.353C57.4304 39.1949 57.4304 41.0324 57.4304 42.9834C56.7397 42.9834 56.1492 42.9834 55.5586 42.9834L55.5766 43.0059C55.5766 41.149 55.5766 39.2951 55.5766 37.3725C56.2613 37.3725 56.8519 37.3725 57.4469 37.3725L57.4304 37.353Z" fill="#FFF8E0"/>
<path d="M42.595 55.9655C42.595 56.5381 42.595 57.1062 42.595 57.8417C40.6858 57.8417 38.8274 57.8417 36.9706 57.8417L36.993 57.8582C36.993 57.2422 36.993 56.6293 36.993 55.9849C38.9471 55.9849 40.7815 55.9849 42.6174 55.9849L42.595 55.9655Z" fill="#FFF8E0"/>
<path d="M55.5573 42.9839C55.5573 44.1754 55.5573 45.3655 55.5573 46.6229C54.9234 46.6513 54.3613 46.6752 53.7169 46.7036C53.7169 47.2762 53.7169 47.8324 53.7169 48.4483C53.0262 48.4483 52.4162 48.4483 51.8032 48.4483L51.8256 48.4737C51.8256 47.8922 51.8256 47.3076 51.8256 46.6602C52.479 46.6602 53.0381 46.6602 53.6975 46.6602C53.6975 45.3969 53.6975 44.1964 53.6975 43.0078C54.3912 43.0078 54.9832 43.0078 55.5738 43.0078L55.5573 42.9839Z" fill="#FFF8E0"/>
<path d="M48.0552 52.2045C48.0552 52.798 48.0552 53.393 48.0552 54.0703C47.502 54.0703 46.9414 54.0703 46.3194 54.0703C46.291 54.7296 46.2641 55.3112 46.2357 55.9616C44.9754 55.9616 43.7868 55.9616 42.5997 55.9616L42.6206 55.981C42.6206 55.371 42.6206 54.761 42.6206 54.0763C43.8496 54.0763 45.0247 54.0763 46.291 54.0763C46.291 53.4199 46.291 52.8384 46.291 52.2254C46.9488 52.2254 47.514 52.2254 48.0806 52.2254L48.0552 52.2045Z" fill="#FFF8E0"/>
<path d="M9.2047 50.3295C8.61714 50.3295 8.02958 50.3295 7.33288 50.3295C7.33288 49.6792 7.33288 49.0662 7.33288 48.4532L7.31644 48.4757C7.92941 48.4757 8.54239 48.4757 9.18975 48.4757C9.18975 49.1754 9.18975 49.7629 9.18975 50.352L9.2047 50.3295Z" fill="#FFF8E0"/>
<path d="M51.8034 48.4502C51.8034 49.0632 51.8034 49.6732 51.8034 50.3235C51.1366 50.3235 50.5311 50.3235 49.9211 50.3235L49.9495 50.3519C49.9495 49.7614 49.9495 49.1708 49.9495 48.4756C50.6432 48.4756 51.2337 48.4756 51.8213 48.4756L51.8034 48.4502Z" fill="#FFF8E0"/>
<path d="M11.0836 52.2044C10.496 52.2044 9.90848 52.2044 9.20431 52.2044C9.20431 51.5481 9.20431 50.9381 9.20431 50.3281L9.18936 50.3505C9.79935 50.3505 10.4048 50.3505 11.0612 50.3505C11.0612 51.0547 11.0612 51.6423 11.0612 52.2298L11.0836 52.2044Z" fill="#FFF8E0"/>
<path d="M49.9243 50.3235C49.9243 50.914 49.9243 51.5016 49.9243 52.2058C49.3143 52.2058 48.6864 52.2058 48.054 52.2058L48.0794 52.2282C48.0794 51.6376 48.0794 51.0471 48.0794 50.3519C48.7731 50.3519 49.3651 50.3519 49.9527 50.3519L49.9243 50.3235Z" fill="#FFF8E0"/>
<path d="M12.9575 54.0837C12.3639 54.0837 11.7689 54.0837 11.0812 54.0837C11.0812 53.4363 11.0812 52.8204 11.0812 52.2074L11.0602 52.2298C11.6717 52.2298 12.2847 52.2298 12.9321 52.2298C12.9321 52.9146 12.9321 53.5111 12.9321 54.1061L12.9575 54.0837Z" fill="#FFF8E0"/>
</svg>
