<svg width="20" height="21" viewBox="0 0 20 21" fill="none" xmlns="http://www.w3.org/2000/svg">
<path fill-rule="evenodd" clip-rule="evenodd" d="M11.0002 0.0996094H9.00024V6.09961H11.0002V0.0996094ZM11.0002 14.0996H9.00024V20.0996H11.0002V14.0996ZM20.0001 9.09958V11.0996L14.0001 11.0996V9.09958H20.0001ZM6 11.0996V9.09958H0V11.0996L6 11.0996ZM13 5.09958H15V7.09958H13V5.09958ZM16.9999 3.09958H14.9999V5.09958H16.9999V3.09958ZM7 5.09958H5V7.09958H7V5.09958ZM3.00009 3.09958H5.00009V5.09958H3.00009V3.09958ZM13 15.0996H14.9999V17.0995H16.9999V15.0995H15V13.0996H13V15.0996ZM5 15.0995V13.0996H7V15.0996H5.00009V17.0995H3.00009V15.0995H5Z" fill="#FFF8E0"/>
</svg>
