<svg width="72" height="64" viewBox="0 0 72 64" fill="none" xmlns="http://www.w3.org/2000/svg">
<path d="M32.6204 63.3339H39.0155V56.9388H32.6204V63.3339Z" fill="#FFF8E0"/>
<path d="M26.9172 56.948H44.7291V50.5529H26.9172V56.948Z" fill="#FFF8E0"/>
<path d="M29.6538 0.0682373H11.8419V6.46334H29.6538V0.0682373Z" fill="#FFF8E0"/>
<path d="M0.429321 13.2136L0.429321 31.0255H6.82442L6.82442 13.2136H0.429321Z" fill="#FFF8E0"/>
<path d="M64.8783 13.2119V31.0238H71.2734V13.2119H64.8783Z" fill="#FFF8E0"/>
<path d="M59.9313 0.0682373H42.1194V6.46334H59.9313V0.0682373Z" fill="#FFF8E0"/>
<path d="M18.9646 50.5574L52.6798 50.5574V44.1623L18.9646 44.1623V50.5574Z" fill="#FFF8E0"/>
<path d="M13.0281 44.174L58.6108 44.174V37.7788L13.0281 37.7788V44.174Z" fill="#FFF8E0"/>
<path d="M39.0192 6.4563V12.7035H32.6241V6.4563H6.76196V37.7768H64.8743V6.4563H39.0192Z" fill="#FFF8E0"/>
</svg>
