<svg width="49" height="30" viewBox="0 0 49 30" fill="none" xmlns="http://www.w3.org/2000/svg">
<path d="M17.4442 29.8125V26.7323H22.0197V22.1111H17.4442V17.543H12.8686V22.1111H8.23999V8.40653H12.8155V12.9746H17.3911V8.40653H21.9666V3.78535H17.3911V0.953125H31.1711V3.78535H26.5955V8.35346H31.1711V12.9216H35.7466V8.40653H40.3221V22.1642H35.7464V17.543H31.1708V22.1111H26.5953V26.6792H31.1708V29.8127H17.4442V29.8125ZM8.23999 3.78535V0.953125H12.8155V3.78535H8.23999ZM8.23999 29.8125V26.7323H12.8155V29.8125H8.23999ZM12.8155 8.40653V3.78535H17.3911V8.35346H12.8155V8.40653ZM12.8155 26.7325V22.1111H17.3911V26.6792H12.8155V26.7325ZM26.5953 17.543V12.9749H22.0197V17.543H26.5953ZM31.1708 8.40653V3.78535H35.7464V8.35346H31.1708V8.40653ZM31.1708 26.7325V22.1111H35.7464V26.6792H31.1708V26.7325ZM35.7994 3.78535V0.953125H40.375V3.78535H35.7994ZM35.7994 29.8125V26.7323H40.375V29.8125H35.7994Z" fill="#FFF8E0"/>
<path d="M0.0541992 0.954102H3.62293V3.78632H0.221836V8.35444H3.62293V12.9225H8.19848V8.4075H12.774V22.1652H8.19848V17.544H3.62293V22.1121H0.221836V26.6802H3.62293V29.8137H0.107516L0.0541992 0.954102ZM3.62293 8.4075V3.78632H8.19848V8.35444H3.62293V8.4075ZM3.62293 26.7335V22.1121H8.19848V26.6802H3.62293V26.7335ZM8.2518 3.78632V0.954102H12.8273V3.78632H8.2518ZM8.2518 29.8135V26.7333H12.8273V29.8135H8.2518Z" fill="#FFF8E0"/>
<path d="M48.8237 29.7878H44.9921V26.7076H48.8237V22.0864H44.9921V17.5183H40.4166V22.0864H35.7877V8.38187H40.3633V12.95H44.9388V8.38187H48.7704V3.76069H44.9388V0.928467H48.8237V29.7878ZM35.7877 3.76069V0.928467H40.3633V3.76069H35.7877ZM35.7877 29.7878V26.7076H40.3633V29.7878H35.7877ZM40.3633 8.38187V3.76069H44.9388V8.3288H40.3633V8.38187ZM40.3633 26.7079V22.0864H44.9388V26.6546H40.3633V26.7079Z" fill="#FFF8E0"/>
</svg>
