<svg width="83" height="43" viewBox="0 0 83 43" fill="none" xmlns="http://www.w3.org/2000/svg">
<path d="M3.28156 0.0139465V42.3076H0.807678V0.0139465H3.28156ZM8.24013 0.0139465V42.3076H5.75544V0.0139465H8.24013ZM13.2527 0.0139465V42.3076H10.7788V0.0139465H13.2527ZM18.2113 0.0139465V42.3076H15.7374V0.0139465H18.2113ZM23.2239 0.0139465V42.3076H20.6852V0.0139465H23.2239ZM28.1716 0.0139465V42.3076H25.6977V0.0139465H28.1716ZM33.1302 0.0139465V42.3076H30.6563V0.0139465H33.1302ZM38.1428 0.0139465V42.3076H35.6689V0.0139465H38.1428ZM43.1013 0.0139465V42.3076H40.6275V0.0139465H43.1013Z" fill="#FFF8E0"/>
<path d="M43.1802 0.0136719V42.3073H40.7063V0.0136719H43.1802ZM48.1388 0.0136719V42.3073H45.6541V0.0136719H48.1388ZM53.1514 0.0136719V42.3073H50.6775V0.0136719H53.1514ZM58.1099 0.0136719V42.3073H55.636V0.0136719H58.1099ZM63.1225 0.0136719V42.3073H60.5838V0.0136719H63.1225ZM68.0703 0.0136719V42.3073H65.5964V0.0136719H68.0703ZM73.0288 0.0136719V42.3073H70.555V0.0136719H73.0288ZM78.0414 0.0136719V42.3073H75.5675V0.0136719H78.0414ZM83 0.0136719V42.3073H80.5261V0.0136719H83Z" fill="#FFF8E0"/>
</svg>
