<svg width="86" height="72" viewBox="0 0 86 72" fill="none" xmlns="http://www.w3.org/2000/svg">
<path d="M80.9297 13.6977H76.3986V9.35611H67.5259V4.82503H62.9948V9.35611H58.6531L58.6544 13.6977H54.1234V18.2288H45.2506V13.6977H27.3168V18.2288H22.9751V22.7599H14.1024V27.1016H9.76078V35.9743H5.2297V40.5054H9.76078V49.3781H18.6335V53.9092H54.3132V49.3781L49.7821 49.3768V45.0351H32.0363V40.504L49.7821 40.5054V45.0364H54.3132V49.3781H67.7173V45.0364H63.1862V36.1637H67.7173V31.8221H81.1214V27.291H85.4631V18.4183H81.1214L81.1201 13.6974L80.9297 13.6977ZM72.0569 22.5705H67.7153V18.0394H72.0569V22.5705ZM54.1231 22.5705V26.9121H58.6542V31.4432H54.1231V26.9121L49.7814 26.9134V22.5718L54.1231 22.5705ZM40.9087 35.9746V31.633H27.5046V35.9746H23.1629V31.633H27.5046V27.1019H40.9087V31.633H45.4398V35.9746H40.9087ZM54.1231 4.82503V0.293945H62.9958V4.82503H54.1231ZM54.1231 13.6977H49.7814V4.82503H54.3125L54.3112 13.6977H54.1231ZM36.3773 71.6536V67.1225H40.9084V71.6536H36.3773ZM31.8472 67.1225V62.5914H36.1888V67.1225H31.8472ZM9.57035 62.5924V58.2508H31.8459V62.5924H9.57035ZM5.22872 58.2494V53.7184H9.75981V58.2494H5.22872ZM0.697632 40.3156H5.22872V53.7197H0.697632V40.3156Z" fill="#FFF8E0"/>
</svg>
